{
    "asset" : {
        "generator" : "Khronos glTF Blender I/O v1.2.75",
        "version" : "2.0"
    },
    "scene" : 0,
    "scenes" : [
        {
            "name" : "Scene",
            "nodes" : [
                0,
                1,
                2,
                3
            ]
        }
    ],
    "nodes" : [
        {
            "mesh" : 0,
            "name" : "Cube"
        },
        {
            "name" : "Empty",
            "rotation" : [
                0.7071068286895752,
                0,
                0,
                0.7071067094802856
            ],
            "translation" : [
                -0.5434970855712891,
                -1.5002188682556152,
                0
            ]
        },
        {
            "name" : "Empty.001",
            "rotation" : [
                0.5,
                0.5,
                -0.5,
                0.4999999701976776
            ],
            "translation" : [
                0,
                -1.4812289476394653,
                -1.4356526136398315
            ]
        },
        {
            "name" : "Empty.002",
            "rotation" : [
                0,
                0.7071067690849304,
                0,
                0.7071067690849304
            ],
            "translation" : [
                -0.6407250165939331,
                0,
                -1.4254801273345947
            ]
        }
    ],
    "meshes" : [
        {
            "name" : "Cube",
            "primitives" : [
                {
                    "attributes" : {
                        "POSITION" : 0,
                        "NORMAL" : 1,
                        "TEXCOORD_0" : 2
                    },
                    "indices" : 3
                }
            ]
        }
    ],
    "accessors" : [
        {
            "bufferView" : 0,
            "componentType" : 5126,
            "count" : 1618,
            "max" : [
                0.6209773421287537,
                0.4143598973751068,
                0.5004505515098572
            ],
            "min" : [
                -0.616157054901123,
                -0.012340495362877846,
                -0.5004504919052124
            ],
            "type" : "VEC3"
        },
        {
            "bufferView" : 1,
            "componentType" : 5126,
            "count" : 1618,
            "type" : "VEC3"
        },
        {
            "bufferView" : 2,
            "componentType" : 5126,
            "count" : 1618,
            "type" : "VEC2"
        },
        {
            "bufferView" : 3,
            "componentType" : 5123,
            "count" : 3876,
            "type" : "SCALAR"
        }
    ],
    "bufferViews" : [
        {
            "buffer" : 0,
            "byteLength" : 19416,
            "byteOffset" : 0
        },
        {
            "buffer" : 0,
            "byteLength" : 19416,
            "byteOffset" : 19416
        },
        {
            "buffer" : 0,
            "byteLength" : 12944,
            "byteOffset" : 38832
        },
        {
            "buffer" : 0,
            "byteLength" : 7752,
            "byteOffset" : 51776
        }
    ],
    "buffers" : [
        {
            "byteLength" : 59528,
            "uri" : "bogie.bin"
        }
    ]
}
