{
    "asset" : {
        "generator" : "Khronos glTF Blender I/O v1.2.75",
        "version" : "2.0"
    },
    "scene" : 0,
    "scenes" : [
        {
            "name" : "Scene",
            "nodes" : [
                0
            ]
        }
    ],
    "nodes" : [
        {
            "mesh" : 0,
            "name" : "Cube.002",
            "scale" : [
                2.856480360031128,
                2.856480360031128,
                2.856480360031128
            ]
        }
    ],
    "meshes" : [
        {
            "name" : "Cube.002",
            "primitives" : [
                {
                    "attributes" : {
                        "POSITION" : 0,
                        "NORMAL" : 1,
                        "TEXCOORD_0" : 2
                    },
                    "indices" : 3
                }
            ]
        }
    ],
    "accessors" : [
        {
            "bufferView" : 0,
            "componentType" : 5126,
            "count" : 4092,
            "max" : [
                1.1879758834838867,
                1.0778393745422363,
                0.38617584109306335
            ],
            "min" : [
                -1.1575111150741577,
                0.0056021809577941895,
                -0.3861755430698395
            ],
            "type" : "VEC3"
        },
        {
            "bufferView" : 1,
            "componentType" : 5126,
            "count" : 4092,
            "type" : "VEC3"
        },
        {
            "bufferView" : 2,
            "componentType" : 5126,
            "count" : 4092,
            "type" : "VEC2"
        },
        {
            "bufferView" : 3,
            "componentType" : 5123,
            "count" : 9000,
            "type" : "SCALAR"
        }
    ],
    "bufferViews" : [
        {
            "buffer" : 0,
            "byteLength" : 49104,
            "byteOffset" : 0
        },
        {
            "buffer" : 0,
            "byteLength" : 49104,
            "byteOffset" : 49104
        },
        {
            "buffer" : 0,
            "byteLength" : 32736,
            "byteOffset" : 98208
        },
        {
            "buffer" : 0,
            "byteLength" : 18000,
            "byteOffset" : 130944
        }
    ],
    "buffers" : [
        {
            "byteLength" : 148944,
            "uri" : "caboose.bin"
        }
    ]
}
