{
    "asset" : {
        "generator" : "Khronos glTF Blender I/O v1.2.75",
        "version" : "2.0"
    },
    "scene" : 0,
    "scenes" : [
        {
            "name" : "Scene",
            "nodes" : [
                0
            ]
        }
    ],
    "nodes" : [
        {
            "mesh" : 0,
            "name" : "Cube"
        }
    ],
    "meshes" : [
        {
            "name" : "Cube",
            "primitives" : [
                {
                    "attributes" : {
                        "POSITION" : 0,
                        "NORMAL" : 1,
                        "TEXCOORD_0" : 2
                    },
                    "indices" : 3
                }
            ]
        }
    ],
    "accessors" : [
        {
            "bufferView" : 0,
            "componentType" : 5126,
            "count" : 816,
            "max" : [
                1.537906527519226,
                1.3953282833099365,
                0.49992793798446655
            ],
            "min" : [
                -1.498468041419983,
                0.07311979681253433,
                -0.4999275505542755
            ],
            "type" : "VEC3"
        },
        {
            "bufferView" : 1,
            "componentType" : 5126,
            "count" : 816,
            "type" : "VEC3"
        },
        {
            "bufferView" : 2,
            "componentType" : 5126,
            "count" : 816,
            "type" : "VEC2"
        },
        {
            "bufferView" : 3,
            "componentType" : 5123,
            "count" : 1248,
            "type" : "SCALAR"
        }
    ],
    "bufferViews" : [
        {
            "buffer" : 0,
            "byteLength" : 9792,
            "byteOffset" : 0
        },
        {
            "buffer" : 0,
            "byteLength" : 9792,
            "byteOffset" : 9792
        },
        {
            "buffer" : 0,
            "byteLength" : 6528,
            "byteOffset" : 19584
        },
        {
            "buffer" : 0,
            "byteLength" : 2496,
            "byteOffset" : 26112
        }
    ],
    "buffers" : [
        {
            "byteLength" : 28608,
            "uri" : "caboose.bin"
        }
    ]
}
