{
    "asset" : {
        "generator" : "Khronos glTF Blender I/O v1.2.75",
        "version" : "2.0"
    },
    "scene" : 0,
    "scenes" : [
        {
            "name" : "Scene",
            "nodes" : [
                0
            ]
        }
    ],
    "nodes" : [
        {
            "mesh" : 0,
            "name" : "Cylinder.020",
            "scale" : [
                1.334709644317627,
                1.334709644317627,
                1.334709644317627
            ]
        }
    ],
    "meshes" : [
        {
            "name" : "Cylinder.047",
            "primitives" : [
                {
                    "attributes" : {
                        "POSITION" : 0,
                        "NORMAL" : 1,
                        "TEXCOORD_0" : 2
                    },
                    "indices" : 3
                }
            ]
        }
    ],
    "accessors" : [
        {
            "bufferView" : 0,
            "componentType" : 5126,
            "count" : 3352,
            "max" : [
                1.4514586925506592,
                1.0926650762557983,
                0.25779664516448975
            ],
            "min" : [
                -1.233873724937439,
                -0.005389735102653503,
                -0.2686708867549896
            ],
            "type" : "VEC3"
        },
        {
            "bufferView" : 1,
            "componentType" : 5126,
            "count" : 3352,
            "type" : "VEC3"
        },
        {
            "bufferView" : 2,
            "componentType" : 5126,
            "count" : 3352,
            "type" : "VEC2"
        },
        {
            "bufferView" : 3,
            "componentType" : 5123,
            "count" : 6054,
            "type" : "SCALAR"
        }
    ],
    "bufferViews" : [
        {
            "buffer" : 0,
            "byteLength" : 40224,
            "byteOffset" : 0
        },
        {
            "buffer" : 0,
            "byteLength" : 40224,
            "byteOffset" : 40224
        },
        {
            "buffer" : 0,
            "byteLength" : 26816,
            "byteOffset" : 80448
        },
        {
            "buffer" : 0,
            "byteLength" : 12108,
            "byteOffset" : 107264
        }
    ],
    "buffers" : [
        {
            "byteLength" : 119372,
            "uri" : "classE.bin"
        }
    ]
}
