{
    "asset" : {
        "generator" : "Khronos glTF Blender I/O v1.2.75",
        "version" : "2.0"
    },
    "scene" : 0,
    "scenes" : [
        {
            "name" : "Scene",
            "nodes" : [
                0,
                1,
                2
            ]
        }
    ],
    "nodes" : [
        {
            "name" : "Empty",
            "rotation" : [
                0.5,
                0.5,
                -0.5,
                0.4999999701976776
            ],
            "translation" : [
                0,
                0.7930269837379456,
                1.718225121498108
            ]
        },
        {
            "name" : "Empty.001",
            "rotation" : [
                0.7071068286895752,
                0,
                0,
                0.7071067094802856
            ],
            "translation" : [
                -0.23243892192840576,
                -0.31903380155563354,
                0
            ]
        },
        {
            "mesh" : 0,
            "name" : "Cube.007"
        }
    ],
    "meshes" : [
        {
            "name" : "Cube.011",
            "primitives" : [
                {
                    "attributes" : {
                        "POSITION" : 0,
                        "NORMAL" : 1,
                        "TEXCOORD_0" : 2
                    },
                    "indices" : 3
                }
            ]
        }
    ],
    "accessors" : [
        {
            "bufferView" : 0,
            "componentType" : 5126,
            "count" : 3660,
            "max" : [
                2.057291269302368,
                0.7195597290992737,
                0.2537694275379181
            ],
            "min" : [
                -2.0495951175689697,
                -0.004469037055969238,
                -0.2537694275379181
            ],
            "type" : "VEC3"
        },
        {
            "bufferView" : 1,
            "componentType" : 5126,
            "count" : 3660,
            "type" : "VEC3"
        },
        {
            "bufferView" : 2,
            "componentType" : 5126,
            "count" : 3660,
            "type" : "VEC2"
        },
        {
            "bufferView" : 3,
            "componentType" : 5123,
            "count" : 6912,
            "type" : "SCALAR"
        }
    ],
    "bufferViews" : [
        {
            "buffer" : 0,
            "byteLength" : 43920,
            "byteOffset" : 0
        },
        {
            "buffer" : 0,
            "byteLength" : 43920,
            "byteOffset" : 43920
        },
        {
            "buffer" : 0,
            "byteLength" : 29280,
            "byteOffset" : 87840
        },
        {
            "buffer" : 0,
            "byteLength" : 13824,
            "byteOffset" : 117120
        }
    ],
    "buffers" : [
        {
            "byteLength" : 130944,
            "uri" : "p70.bin"
        }
    ]
}
