{
    "asset" : {
        "generator" : "Khronos glTF Blender I/O v1.2.75",
        "version" : "2.0"
    },
    "scene" : 0,
    "scenes" : [
        {
            "name" : "Scene",
            "nodes" : [
                0
            ]
        }
    ],
    "nodes" : [
        {
            "mesh" : 0,
            "name" : "Cube"
        }
    ],
    "meshes" : [
        {
            "name" : "Cube.003",
            "primitives" : [
                {
                    "attributes" : {
                        "POSITION" : 0,
                        "NORMAL" : 1,
                        "TEXCOORD_0" : 2
                    },
                    "indices" : 3
                }
            ]
        }
    ],
    "accessors" : [
        {
            "bufferView" : 0,
            "componentType" : 5126,
            "count" : 1398,
            "max" : [
                6.360100746154785,
                5.035006046295166,
                3.756805658340454
            ],
            "min" : [
                -6.550080299377441,
                -0.7003211379051208,
                -3.2012112140655518
            ],
            "type" : "VEC3"
        },
        {
            "bufferView" : 1,
            "componentType" : 5126,
            "count" : 1398,
            "type" : "VEC3"
        },
        {
            "bufferView" : 2,
            "componentType" : 5126,
            "count" : 1398,
            "type" : "VEC2"
        },
        {
            "bufferView" : 3,
            "componentType" : 5123,
            "count" : 1398,
            "type" : "SCALAR"
        }
    ],
    "bufferViews" : [
        {
            "buffer" : 0,
            "byteLength" : 16776,
            "byteOffset" : 0
        },
        {
            "buffer" : 0,
            "byteLength" : 16776,
            "byteOffset" : 16776
        },
        {
            "buffer" : 0,
            "byteLength" : 11184,
            "byteOffset" : 33552
        },
        {
            "buffer" : 0,
            "byteLength" : 2796,
            "byteOffset" : 44736
        }
    ],
    "buffers" : [
        {
            "byteLength" : 47532,
            "uri" : "rocktunnel.bin"
        }
    ]
}
