{
    "asset" : {
        "generator" : "Khronos glTF Blender I/O v1.2.75",
        "version" : "2.0"
    },
    "scene" : 0,
    "scenes" : [
        {
            "name" : "Scene",
            "nodes" : [
                0,
                1,
                2
            ]
        }
    ],
    "nodes" : [
        {
            "mesh" : 0,
            "name" : "Cylinder"
        },
        {
            "name" : "Empty",
            "rotation" : [
                0.7071068286895752,
                0,
                0,
                0.7071067094802856
            ],
            "translation" : [
                0.32158610224723816,
                0.433156818151474,
                0
            ]
        },
        {
            "name" : "Empty.001",
            "rotation" : [
                0.5,
                0.5,
                -0.5,
                0.4999999701976776
            ],
            "translation" : [
                0,
                0.4331568479537964,
                1.5304628610610962
            ]
        }
    ],
    "meshes" : [
        {
            "name" : "Cylinder",
            "primitives" : [
                {
                    "attributes" : {
                        "POSITION" : 0,
                        "NORMAL" : 1,
                        "TEXCOORD_0" : 2
                    },
                    "indices" : 3
                }
            ]
        }
    ],
    "accessors" : [
        {
            "bufferView" : 0,
            "componentType" : 5126,
            "count" : 4949,
            "max" : [
                1.1060525178909302,
                0.9080727100372314,
                0.31793054938316345
            ],
            "min" : [
                -1.106052279472351,
                -0.003609597682952881,
                -0.31793054938316345
            ],
            "type" : "VEC3"
        },
        {
            "bufferView" : 1,
            "componentType" : 5126,
            "count" : 4949,
            "type" : "VEC3"
        },
        {
            "bufferView" : 2,
            "componentType" : 5126,
            "count" : 4949,
            "type" : "VEC2"
        },
        {
            "bufferView" : 3,
            "componentType" : 5123,
            "count" : 13536,
            "type" : "SCALAR"
        }
    ],
    "bufferViews" : [
        {
            "buffer" : 0,
            "byteLength" : 59388,
            "byteOffset" : 0
        },
        {
            "buffer" : 0,
            "byteLength" : 59388,
            "byteOffset" : 59388
        },
        {
            "buffer" : 0,
            "byteLength" : 39592,
            "byteOffset" : 118776
        },
        {
            "buffer" : 0,
            "byteLength" : 27072,
            "byteOffset" : 158368
        }
    ],
    "buffers" : [
        {
            "byteLength" : 185440,
            "uri" : "tm8.bin"
        }
    ]
}
