{
    "asset" : {
        "generator" : "Khronos glTF Blender I/O v1.2.75",
        "version" : "2.0"
    },
    "scene" : 0,
    "scenes" : [
        {
            "name" : "Scene",
            "nodes" : [
                0
            ]
        }
    ],
    "nodes" : [
        {
            "mesh" : 0,
            "name" : "Cube"
        }
    ],
    "meshes" : [
        {
            "name" : "Cube",
            "primitives" : [
                {
                    "attributes" : {
                        "POSITION" : 0,
                        "NORMAL" : 1,
                        "TEXCOORD_0" : 2
                    },
                    "indices" : 3
                }
            ]
        }
    ],
    "accessors" : [
        {
            "bufferView" : 0,
            "componentType" : 5126,
            "count" : 1125,
            "max" : [
                7.100111961364746,
                4.963802814483643,
                7.4323530197143555
            ],
            "min" : [
                -7.087647438049316,
                0,
                -4.114621639251709
            ],
            "type" : "VEC3"
        },
        {
            "bufferView" : 1,
            "componentType" : 5126,
            "count" : 1125,
            "type" : "VEC3"
        },
        {
            "bufferView" : 2,
            "componentType" : 5126,
            "count" : 1125,
            "type" : "VEC2"
        },
        {
            "bufferView" : 3,
            "componentType" : 5123,
            "count" : 1764,
            "type" : "SCALAR"
        }
    ],
    "bufferViews" : [
        {
            "buffer" : 0,
            "byteLength" : 13500,
            "byteOffset" : 0
        },
        {
            "buffer" : 0,
            "byteLength" : 13500,
            "byteOffset" : 13500
        },
        {
            "buffer" : 0,
            "byteLength" : 9000,
            "byteOffset" : 27000
        },
        {
            "buffer" : 0,
            "byteLength" : 3528,
            "byteOffset" : 36000
        }
    ],
    "buffers" : [
        {
            "byteLength" : 39528,
            "uri" : "trainhouse.bin"
        }
    ]
}
