{
    "asset" : {
        "generator" : "Khronos glTF Blender I/O v1.2.75",
        "version" : "2.0"
    },
    "scene" : 0,
    "scenes" : [
        {
            "name" : "Scene",
            "nodes" : [
                0,
                1,
                2
            ]
        }
    ],
    "nodes" : [
        {
            "mesh" : 0,
            "name" : "Cube"
        },
        {
            "name" : "Empty",
            "rotation" : [
                0.7071068286895752,
                0,
                0,
                0.7071067094802856
            ],
            "scale" : [
                1.4479999542236328,
                1.4479999542236328,
                1.4479999542236328
            ],
            "translation" : [
                0.19688943028450012,
                0.8719238042831421,
                0
            ]
        },
        {
            "name" : "Empty.001",
            "rotation" : [
                0.5,
                0.5,
                -0.5,
                0.4999999701976776
            ],
            "scale" : [
                1.4476710557937622,
                1.4476710557937622,
                1.4476710557937622
            ],
            "translation" : [
                0,
                0.867772102355957,
                2.745514154434204
            ]
        }
    ],
    "meshes" : [
        {
            "name" : "Cube.001",
            "primitives" : [
                {
                    "attributes" : {
                        "POSITION" : 0,
                        "NORMAL" : 1,
                        "TEXCOORD_0" : 2
                    },
                    "indices" : 3
                }
            ]
        }
    ],
    "accessors" : [
        {
            "bufferView" : 0,
            "componentType" : 5126,
            "count" : 2896,
            "max" : [
                2.0438427925109863,
                1.4815661907196045,
                0.49435892701148987
            ],
            "min" : [
                -2.0394253730773926,
                0.3182820975780487,
                -0.5079885125160217
            ],
            "type" : "VEC3"
        },
        {
            "bufferView" : 1,
            "componentType" : 5126,
            "count" : 2896,
            "type" : "VEC3"
        },
        {
            "bufferView" : 2,
            "componentType" : 5126,
            "count" : 2896,
            "type" : "VEC2"
        },
        {
            "bufferView" : 3,
            "componentType" : 5123,
            "count" : 5640,
            "type" : "SCALAR"
        }
    ],
    "bufferViews" : [
        {
            "buffer" : 0,
            "byteLength" : 34752,
            "byteOffset" : 0
        },
        {
            "buffer" : 0,
            "byteLength" : 34752,
            "byteOffset" : 34752
        },
        {
            "buffer" : 0,
            "byteLength" : 23168,
            "byteOffset" : 69504
        },
        {
            "buffer" : 0,
            "byteLength" : 11280,
            "byteOffset" : 92672
        }
    ],
    "buffers" : [
        {
            "byteLength" : 103952,
            "uri" : "x36.bin"
        }
    ]
}
